<?xml version="1.0" encoding="UTF-8" standalone="no"?>
<svg width="200px" height="38px" viewBox="0 0 200 38" version="1.1" xmlns="http://www.w3.org/2000/svg" xmlns:xlink="http://www.w3.org/1999/xlink">
    <!-- Generator: Sketch 42 (36781) - http://www.bohemiancoding.com/sketch -->
    <title>Logo WPM</title>
    <desc>Created with Sketch.</desc>
    <defs></defs>
    <g id="Desktop" stroke="none" stroke-width="1" fill="none" fill-rule="evenodd">
        <g id="WP-Media-—-Homepage-2017-ALT" transform="translate(-482.000000, -210.000000)">
            <g id="Logo-WPM" transform="translate(482.000000, 209.000000)">
                <path d="M199.8579,20.1649 L199.8579,17.2379 L199.3829,17.2149 C198.4729,17.1689 197.7949,16.8739 197.4339,16.3779 C197.1679,15.9779 197.0129,15.2769 196.9619,14.2599 C196.9619,14.1679 196.9559,14.0249 196.9479,13.8289 C196.9319,13.4219 196.9059,12.7729 196.9059,11.8639 C196.9059,10.8079 196.8449,10.0049 196.7909,9.4029 C196.6049,7.9879 195.9859,6.8299 194.8889,5.8539 C193.7259,4.8759 192.3999,4.3999 190.8349,4.3999 C190.7069,4.3999 190.5309,4.3999 190.2869,4.4809 L189.9439,4.5949 L189.9439,7.4769 L190.4029,7.5159 C191.5349,7.6099 192.2719,8.1009 192.5989,8.9859 C192.7109,9.2649 192.8969,10.0529 192.8969,12.1979 C192.8969,14.2789 192.9669,15.4929 193.1289,16.2489 C193.3649,17.4769 193.8649,18.3719 194.6489,18.9569 C193.9209,19.5489 193.4129,20.4569 193.1319,21.6689 C192.9689,22.3739 192.8969,23.6109 192.8969,25.6809 C192.8969,27.8269 192.7109,28.6149 192.6019,28.8849 C192.2159,29.8019 191.5169,30.2709 190.4029,30.3639 L189.9439,30.4019 L189.9439,32.9229 L189.9709,33.3919 L190.4379,33.4229 C190.4689,33.4249 190.5049,33.4339 190.5429,33.4409 C190.6459,33.4619 190.7519,33.4779 190.8349,33.4779 C192.4009,33.4779 193.7269,33.0029 194.8989,32.0159 C195.9859,31.0499 196.6049,29.8929 196.7939,28.4359 L196.8759,26.9359 C196.9549,25.5249 197.0169,24.4109 197.0159,23.5899 C197.0689,22.5829 197.2239,21.8999 197.4899,21.5009 C197.8339,20.9859 198.4709,20.7129 199.4389,20.6639 L199.4139,20.1649 L199.8579,20.1649 Z" id="Fill-1" fill="#F2CE4D"></path>
                <path d="M9.0239,4.4002 C7.4589,4.4002 6.1319,4.8762 4.9589,5.8632 C3.8719,6.8312 3.2529,7.9882 3.0659,9.4232 C3.0129,10.0042 2.9529,10.8072 2.9529,11.8642 C2.9529,12.7732 2.9269,13.4212 2.9099,13.8292 C2.9019,14.0252 2.8969,14.1682 2.8979,14.2342 C2.8459,15.2772 2.6909,15.9782 2.4359,16.3612 C2.0629,16.8742 1.3849,17.1692 0.4749,17.2142 L-0.0001,17.2382 L-0.0001,20.1652 L0.4319,20.1652 L0.4199,20.6642 C1.3869,20.7122 2.0249,20.9862 2.3679,21.5012 C2.6339,21.9002 2.7889,22.5832 2.8409,23.5632 C2.8409,24.4112 2.9039,25.5252 2.9819,26.9362 L3.0679,28.4742 C3.2529,29.8912 3.8719,31.0492 4.9689,32.0242 C6.1309,33.0032 7.4579,33.4782 9.0239,33.4782 C9.1069,33.4782 9.2119,33.4622 9.3169,33.4412 C9.3529,33.4332 9.3889,33.4242 9.4139,33.4222 L9.9139,33.4222 L9.9139,30.4022 L9.4549,30.3642 C8.3409,30.2712 7.6419,29.8012 7.2599,28.8932 C7.1479,28.6142 6.9609,27.8262 6.9609,25.6802 C6.9609,23.6112 6.8879,22.3742 6.7259,21.6692 C6.4459,20.4572 5.9369,19.5482 5.2089,18.9572 C5.9919,18.3722 6.4919,17.4802 6.7269,16.2582 C6.8909,15.4932 6.9609,14.2792 6.9609,12.1982 C6.9609,10.0532 7.1479,9.2652 7.2649,8.9732 C7.5869,8.1002 8.3229,7.6102 9.4549,7.5152 L9.9139,7.4772 L9.9139,4.5952 L9.5719,4.4812 C9.3279,4.4002 9.1519,4.4002 9.0239,4.4002" id="Fill-3" fill="#F2CE4D"></path>
                <polygon id="Fill-6" fill="#F2CE4D" points="39.9717 20.1356 36.5367 8.1636 30.3547 8.1636 26.9207 20.1356 23.1917 8.1636 15.1447 8.1636 22.9947 30.6356 30.4527 30.6356 32.8077 23.9626 33.3967 21.6086 34.0837 23.8646 36.4387 30.6356 43.8967 30.6356 51.7477 8.1636 43.6027 8.1636"></polygon>
                <path d="M64.7993,14.9344 C67.8413,14.9344 69.2153,17.1924 69.2153,19.3504 C69.2153,21.9024 67.3513,23.7664 64.7993,23.7664 C62.2483,23.7664 60.3833,21.9024 60.3833,19.3504 C60.3833,17.1924 61.7573,14.9344 64.7993,14.9344 M65.1923,7.7714 C63.5243,7.7714 61.3643,8.2614 59.5983,9.5384 L59.4023,8.1634 L52.4343,8.1634 L52.4343,38.8784 L59.7953,38.8784 L59.7953,29.6554 C61.4633,30.6354 63.5243,31.0284 65.1923,31.0284 C71.8653,31.0284 76.4773,26.2204 76.4773,19.3504 C76.6733,12.6774 71.8653,7.7714 65.1923,7.7714" id="Fill-8" fill="#F2CE4D"></path>
                <path d="M108.9595,29.3602 L108.9595,17.3882 C108.9595,13.5612 106.4075,10.8132 102.5805,10.8132 C98.7535,10.8132 96.1045,13.6592 96.1045,17.4862 L96.1045,29.3602 L94.1415,29.3602 L94.1415,17.4862 C94.1415,13.6592 91.4915,10.8132 87.6645,10.8132 C83.8375,10.8132 81.2855,13.5612 81.2855,17.4862 L81.2855,29.3602 L79.3225,29.3602 L79.3225,9.3412 L81.1885,9.3412 L81.1885,12.6772 C82.5615,10.0282 85.1125,8.9492 87.6645,8.9492 C90.7065,8.9492 93.9445,10.3232 95.1225,13.8552 C96.3005,10.6172 99.4395,8.9492 102.5805,8.9492 C107.4865,8.9492 110.9215,12.3832 110.9215,17.3882 L110.9215,29.3602 L108.9595,29.3602 Z" id="Fill-10" fill="#F6F6F6"></path>
                <path d="M131.6274,18.5653 C131.6274,13.6593 128.3894,10.9113 123.4824,10.9113 C119.3604,10.9113 115.8284,13.6593 115.3374,18.5653 L131.6274,18.5653 Z M113.3754,19.3503 C113.3754,13.3653 117.8894,9.0463 123.5804,9.0463 C129.1744,9.0463 134.2764,12.4813 133.4924,20.3323 L115.4364,20.3323 C115.8284,25.0433 119.4594,27.7903 123.5804,27.7903 C126.2314,27.7903 129.2734,26.7113 130.8424,24.7483 L132.2164,25.9253 C130.2544,28.4773 126.8184,29.7533 123.5804,29.7533 C117.8894,29.6553 113.3754,25.7293 113.3754,19.3503 L113.3754,19.3503 Z" id="Fill-12" fill="#F6F6F6"></path>
                <path d="M137.4175,19.3504 C137.4175,24.9444 141.1465,27.6924 145.5635,27.6924 C150.2725,27.6924 153.7075,24.2574 153.7075,19.2524 C153.7075,14.2474 150.1755,10.9114 145.5635,10.9114 C141.1465,10.9114 137.4175,13.7574 137.4175,19.3504 L137.4175,19.3504 Z M155.7685,0.9994 L155.7685,29.3604 L153.8065,29.3604 L153.8065,24.9444 C152.1375,27.9864 148.8985,29.6554 145.4645,29.6554 C139.8705,29.6554 135.4545,25.9254 135.4545,19.3504 C135.4545,12.7764 139.8705,9.0464 145.4645,9.0464 C148.8985,9.0464 152.1375,10.5184 153.8065,13.7574 L153.8065,0.9994 L155.7685,0.9994 Z" id="Fill-14" fill="#F6F6F6"></path>
                <path d="M159.498,29.3602 L161.461,29.3602 L161.461,9.2432 L159.498,9.2432 L159.498,29.3602 Z M162.049,2.8642 C162.049,4.9252 158.81,4.9252 158.81,2.8642 C158.81,0.8032 162.049,0.7062 162.049,2.8642 L162.049,2.8642 Z" id="Fill-17" fill="#F6F6F6"></path>
                <path d="M165.9741,19.3504 C165.9741,24.3554 169.6051,27.6924 174.1201,27.6924 C185.3061,27.6924 185.3061,10.9114 174.1201,10.9114 C169.6051,11.0094 165.9741,14.3464 165.9741,19.3504 L165.9741,19.3504 Z M184.3251,9.3414 L184.3251,29.3604 L182.3631,29.3604 L182.3631,25.1404 C180.4001,28.2814 177.4551,29.7524 174.2171,29.7524 C168.6231,29.7524 164.0111,25.5334 164.0111,19.4494 C164.0111,13.3654 168.6231,9.2434 174.2171,9.2434 C177.4551,9.2434 180.6941,10.7144 182.3631,13.8554 L182.3631,9.4394 L184.3251,9.4394 L184.3251,9.3414 Z" id="Fill-19" fill="#F6F6F6"></path>
            </g>
        </g>
    </g>
</svg>